<svg width="101" height="14" viewBox="0 0 101 14" fill="none" xmlns="http://www.w3.org/2000/svg">
<path d="M24.853 12.1298C24.9689 12.1046 25.136 12.0758 25.3559 12.0432C25.5758 12.0106 25.7875 11.9892 25.994 11.9766L30.48 0.949493H32.8779L37.2286 11.9766C37.4475 11.989 37.6731 12.0111 37.9054 12.0432C38.1376 12.0753 38.3053 12.1041 38.4083 12.1298V13.7432H33.305V12.1224C33.408 12.0963 33.56 12.0671 33.7611 12.0351C33.9703 12.0021 34.181 11.9796 34.3925 11.9677L33.8101 10.327H29.0716L28.4506 11.9677C28.6734 11.9803 28.8844 12.0032 29.0909 12.0351C29.2974 12.0669 29.4534 12.0965 29.5574 12.1224V13.7432H24.853V12.1298ZM33.1393 8.65884L32.2249 6.09894C32.0303 5.56904 31.8713 5.10379 31.748 4.70317C31.6247 4.30254 31.5306 3.97938 31.4658 3.73367H31.4271C31.3618 3.96605 31.2578 4.29563 31.1151 4.72241C30.9725 5.14919 30.8103 5.60802 30.6286 6.09894L29.6948 8.65884H33.1393Z" fill="#1A3559"/>
<path d="M52.3282 13.983C51.9057 14.0288 51.4782 13.9819 51.0759 13.8455C50.6736 13.709 50.3061 13.4864 49.9994 13.1933C49.5265 12.5841 49.2892 11.8258 49.3309 11.0567V6.35501H47.8994V4.3694H49.3346V2.29201L51.8862 1.65479V4.3694H54.677V6.35501H51.8862V10.6526C51.8544 11.0018 51.943 11.3513 52.1373 11.6436C52.2355 11.7478 52.356 11.8285 52.4899 11.8798C52.6238 11.931 52.7676 11.9515 52.9105 11.9396C53.1612 11.9454 53.4106 11.9031 53.6452 11.8153C53.8056 11.7536 53.9609 11.6794 54.1095 11.5933L54.6978 13.4583C54.4122 13.5993 54.1137 13.7128 53.8064 13.7972C53.3253 13.9301 52.8273 13.9927 52.3282 13.983Z" fill="#1A3559"/>
<path d="M59.9601 13.9926C59.23 14.0116 58.5047 13.8704 57.8356 13.5788C57.275 13.3274 56.7768 12.956 56.3766 12.491C55.9935 12.0371 55.7076 11.51 55.5365 10.942C55.3557 10.359 55.2643 9.75223 55.2654 9.1421C55.2665 8.53141 55.3612 7.92446 55.5462 7.34223C55.7247 6.76058 56.0132 6.21825 56.396 5.74441C56.7936 5.26237 57.2913 4.87179 57.8549 4.59952C58.5121 4.28966 59.2332 4.1376 59.9601 4.15549C60.6925 4.13749 61.4203 4.27521 62.095 4.55955C62.6617 4.8053 63.1666 5.17338 63.5732 5.63713C63.9617 6.09075 64.2543 6.61785 64.4334 7.18685C64.6206 7.77514 64.7151 8.38881 64.7135 9.00595C64.7112 9.6102 64.6167 10.2105 64.4334 10.7865C64.2514 11.3737 63.9559 11.9198 63.5635 12.394C63.1566 12.8799 62.65 13.2736 62.0779 13.5485C61.416 13.8581 60.691 14.0101 59.9601 13.9926ZM59.9995 12.1061C60.3228 12.1152 60.6427 12.0386 60.9265 11.8841C61.1856 11.7353 61.3992 11.5191 61.5446 11.2587C61.7091 10.9619 61.8232 10.6401 61.8825 10.3062C61.956 9.90936 61.9916 9.50645 61.9887 9.10289C61.9912 8.69252 61.9524 8.28291 61.8729 7.88026C61.8082 7.53594 61.6875 7.20447 61.5156 6.89893C61.3635 6.63216 61.1437 6.4099 60.8782 6.25434C60.5925 6.09494 60.2689 6.01517 59.9415 6.02343C59.6147 6.01222 59.2908 6.0889 59.004 6.24545C58.7493 6.39661 58.5394 6.61243 58.3957 6.87083C58.2316 7.16693 58.1205 7.48923 58.0673 7.8233C58.0003 8.22088 57.968 8.62349 57.9708 9.02664C57.9682 9.43657 58.0037 9.84589 58.077 10.2493C58.1356 10.5952 58.2566 10.9277 58.4343 11.2306C58.5882 11.4928 58.8035 11.714 59.062 11.8752C59.3467 12.0379 59.6715 12.1178 59.9995 12.1061Z" fill="#1A3559"/>
<path d="M65.6785 12.1284C65.8889 12.0772 66.1022 12.0384 66.3173 12.0121C66.5812 11.9756 66.8472 11.9565 67.1136 11.9552V6.10858C66.8254 6.08243 66.5567 6.06318 66.3076 6.05085C66.0585 6.03852 65.8488 6.0321 65.6785 6.03161V4.41604C66.0187 4.37755 66.556 4.34227 67.2904 4.3102C68.0248 4.27813 68.8442 4.2621 69.7485 4.2621L69.6497 5.87767H69.6266C69.7297 5.6681 69.8541 5.46971 69.998 5.28562C70.1515 5.07437 70.3349 4.88644 70.5425 4.72762C70.7563 4.567 70.9929 4.43904 71.2445 4.34797C71.5119 4.25373 71.7917 4.19913 72.075 4.18589C72.346 4.16151 72.6192 4.17568 72.8862 4.22804C73.0057 4.25153 73.1233 4.28345 73.2383 4.32353C73.2214 4.91559 73.2046 5.51009 73.1878 6.10709C72.9828 6.11079 72.7287 6.12338 72.4375 6.15298C72.1924 6.17264 71.949 6.20873 71.7088 6.26103C71.4566 6.30935 71.2115 6.3892 70.9793 6.49863C70.7627 6.60697 70.5605 6.74196 70.3776 6.90046C70.2133 7.03186 70.0638 7.18074 69.9319 7.34449C69.8322 7.46373 69.7444 7.5924 69.6697 7.72862V11.9596C69.7863 11.9596 69.9223 11.9663 70.0782 11.9789L70.5447 12.0166C70.6883 12.0282 70.8311 12.0475 70.9726 12.0743L71.2645 12.1328V13.7476H65.6829L65.6785 12.1284Z" fill="#1A3559"/>
<path d="M73.9729 12.1261C74.1837 12.0753 74.3972 12.0368 74.6125 12.0107C74.8763 11.9734 75.1424 11.9542 75.4088 11.9529V6.10114C75.1196 6.07598 74.8507 6.05673 74.6021 6.04341C74.3535 6.03009 74.1438 6.02368 73.9729 6.02417V4.42414C74.3072 4.38566 74.8368 4.35065 75.5618 4.31907C76.2869 4.2875 77.1183 4.27146 78.0563 4.27097L77.9605 5.78662V11.9492C78.1961 11.9511 78.4312 11.9704 78.6639 12.007C78.857 12.0323 79.0481 12.0709 79.2359 12.1224V13.7395H73.9729V12.1261Z" fill="#1A3559"/>
<path d="M82.9402 13.9889C82.5595 13.9917 82.1809 13.9327 81.8193 13.8142C81.485 13.7056 81.1761 13.5312 80.9108 13.3013C80.6497 13.0707 80.4419 12.7864 80.3017 12.468C80.1477 12.1103 80.0717 11.7241 80.0788 11.335C80.0612 10.7921 80.206 10.2562 80.4948 9.79559C80.7786 9.36968 81.1607 9.01773 81.6091 8.76913C82.1112 8.49048 82.6565 8.29736 83.2225 8.19777C83.8504 8.08001 84.4882 8.02156 85.1271 8.02314H85.4554V7.36889C85.471 7.18856 85.448 7.00701 85.388 6.83619C85.3279 6.66537 85.2322 6.50917 85.1071 6.37794C84.7529 6.12933 84.3206 6.01634 83.8896 6.05971C83.413 6.05404 82.9411 6.15282 82.5071 6.34907C82.134 6.51448 81.7808 6.721 81.4538 6.96479L80.3908 5.46319C80.8379 5.0707 81.3475 4.7553 81.8988 4.52996C82.6221 4.23658 83.3986 4.0957 84.1793 4.11625C85.2071 4.03507 86.2306 4.31789 87.0696 4.91482C87.4116 5.26383 87.6727 5.68319 87.8346 6.14346C87.9966 6.60372 88.0554 7.09372 88.0071 7.57907V11.5858C88.0071 11.7405 88.013 11.8893 88.0264 12.0299C88.2841 12.0558 88.5219 12.075 88.7417 12.0876C88.9616 12.1002 89.1407 12.1069 89.2825 12.1069V13.7535C88.9735 13.7797 88.5097 13.8043 87.8912 13.8275C87.2726 13.8507 86.5573 13.8638 85.7452 13.8668C85.697 13.7022 85.6647 13.5334 85.6486 13.3628C85.6226 13.1407 85.6033 12.9239 85.5906 12.7048H85.552C85.2827 13.0593 84.9441 13.3556 84.5566 13.5759C84.0672 13.8615 83.5072 14.0046 82.9402 13.9889ZM83.7142 12.2127C84.074 12.2254 84.4307 12.1424 84.7475 11.9722C85.0157 11.8196 85.2546 11.6209 85.4532 11.3853V9.61427H85.1249C84.4861 9.58868 83.8495 9.70366 83.2604 9.95102C83.0335 10.0558 82.8442 10.2272 82.718 10.4424C82.5918 10.6575 82.5349 10.906 82.5547 11.1544C82.5413 11.3082 82.5671 11.4629 82.6297 11.6042C82.6923 11.7455 82.7896 11.8687 82.9127 11.9626C83.1469 12.1275 83.4275 12.2143 83.7142 12.2104V12.2127Z" fill="#1A3559"/>
<path d="M89.998 12.1209C90.2086 12.0702 90.4219 12.0316 90.6369 12.0055C90.9007 11.9683 91.1668 11.949 91.4332 11.9478V6.08268C91.145 6.05653 90.8764 6.03701 90.6273 6.02419C90.3784 6.0116 90.1682 6.00494 89.998 6.00494V4.38495C90.3393 4.34548 90.8734 4.30997 91.6004 4.27839C92.3274 4.24681 93.1432 4.23078 94.048 4.23028L93.9692 5.6364H94.0978C94.4049 5.20529 94.7938 4.83825 95.2424 4.55592C95.7624 4.24476 96.3619 4.09049 96.9681 4.11185C97.4049 4.09998 97.8395 4.17862 98.2442 4.34276C98.576 4.48384 98.8687 4.70241 99.0977 4.97998C99.3232 5.2637 99.4862 5.59149 99.5762 5.94207C99.6784 6.33899 99.7284 6.74747 99.7247 7.15724V11.9426C99.9603 11.9444 100.195 11.9637 100.428 12.0003C100.621 12.0256 100.812 12.0642 101 12.1158V13.7365H97.1731V7.61536C97.2018 7.23579 97.0967 6.85812 96.876 6.54744C96.7502 6.41941 96.5972 6.32102 96.4283 6.25943C96.2595 6.19784 96.0789 6.1746 95.8999 6.19145C95.4895 6.18619 95.0899 6.32213 94.7685 6.57631C94.4716 6.80126 94.208 7.06684 93.9856 7.36521V11.9463C94.2332 11.9596 94.4786 11.982 94.7217 12.0136C94.9044 12.0339 95.085 12.0693 95.2618 12.1195V13.7365H89.9988L89.998 12.1209Z" fill="#1A3559"/>
<path d="M42.8875 13.9304C42.1825 13.9356 41.4789 13.8652 40.789 13.7203C40.2936 13.6313 39.8139 13.4707 39.365 13.2436V10.7274H41.1746C41.1746 10.7533 41.1805 10.8162 41.1931 10.9183C41.2057 11.0205 41.2191 11.1344 41.2317 11.2617C41.2444 11.389 41.254 11.5096 41.2607 11.6243C41.2674 11.7391 41.2704 11.8279 41.2704 11.8915C41.514 11.9552 41.7708 12.0124 42.0407 12.0632C42.32 12.1144 42.6035 12.1391 42.8875 12.1372C43.3094 12.1597 43.73 12.0744 44.1095 11.8893C44.2392 11.827 44.3487 11.7295 44.4253 11.608C44.5019 11.4865 44.5426 11.346 44.5426 11.2025C44.5482 11.0272 44.4862 10.8564 44.3695 10.7252C44.2387 10.5873 44.0816 10.4768 43.9074 10.4003C43.6927 10.3035 43.4707 10.2238 43.2433 10.1619C42.9932 10.0924 42.7333 10.0184 42.4634 9.93993C42.105 9.84702 41.7516 9.73562 41.4048 9.60617C41.0583 9.4803 40.7327 9.30315 40.4391 9.0807C40.1507 8.85721 39.9143 8.57421 39.7461 8.25109C39.5522 7.84989 39.4597 7.40756 39.4764 6.9626C39.4548 6.56216 39.5342 6.16271 39.7074 5.80073C39.8807 5.43874 40.1422 5.12577 40.4681 4.8904C41.2903 4.36852 42.2567 4.11812 43.23 4.17477C43.6128 4.17415 43.9953 4.19664 44.3754 4.24212C44.7409 4.28652 45.0712 4.34054 45.3664 4.40419C45.627 4.45824 45.8839 4.5282 46.1359 4.61364C46.303 4.66749 46.4643 4.7379 46.6173 4.82382V7.30455H44.8085C44.7738 7.14114 44.7512 6.97537 44.7409 6.80866C44.7216 6.57924 44.7052 6.35724 44.6926 6.14262C44.4742 6.0923 44.2469 6.04716 44.0092 6.00941C43.7707 5.97087 43.5295 5.95157 43.2879 5.95169C42.2742 5.95169 41.7673 6.25066 41.7673 6.84864C41.7649 6.93109 41.779 7.01318 41.8087 7.09017C41.8384 7.16715 41.8832 7.23751 41.9404 7.29714C42.0755 7.43193 42.2357 7.53901 42.4121 7.61238C42.6362 7.71039 42.8681 7.7901 43.1052 7.8507L43.9223 8.07272C44.2813 8.17485 44.6374 8.2893 44.9905 8.4161C45.3335 8.53833 45.6575 8.70856 45.9525 8.92161C46.2413 9.13195 46.481 9.4021 46.6552 9.71349C46.8474 10.0846 46.9402 10.4988 46.9248 10.9161C46.9333 11.3622 46.8342 11.8038 46.6359 12.2038C46.4416 12.5814 46.1575 12.9059 45.8083 13.1489C45.4197 13.4169 44.9863 13.6138 44.5284 13.7306C43.9927 13.8691 43.4409 13.9363 42.8875 13.9304Z" fill="#1A3559"/>
<path d="M77.9581 0H75.4065V2.54216H77.9581V0Z" fill="#1A3559"/>
<path d="M16.0593 6.99073L12.8488 0H6.4218L3.21199 6.99001L0 13.9844H6.42475L3.21421 6.99367H8.48835L11.6989 13.9844H19.2757L16.0593 6.99073Z" fill="#1A3559"/>
</svg>
