<svg width="136" height="19" viewBox="0 0 136 19" fill="none" xmlns="http://www.w3.org/2000/svg">
<path d="M33.457 16.39C33.613 16.356 33.838 16.3169 34.134 16.2729C34.43 16.2289 34.715 16.2 34.993 16.183L41.032 1.28296H44.2601L50.1171 16.183C50.4117 16.1996 50.7154 16.2296 51.0281 16.2729C51.3407 16.3163 51.5664 16.3553 51.7051 16.39V18.57H44.8351V16.38C44.9738 16.3447 45.1784 16.3053 45.449 16.262C45.7307 16.2174 46.0144 16.187 46.2991 16.171L45.5151 13.954H39.136L38.3 16.171C38.6 16.188 38.884 16.219 39.162 16.262C39.44 16.305 39.65 16.345 39.79 16.38V18.57H33.457V16.39ZM44.6121 11.7L43.381 8.24097C43.119 7.52497 42.9051 6.89631 42.7391 6.35498C42.5731 5.81365 42.4464 5.37698 42.3591 5.04498H42.3071C42.2191 5.35898 42.0791 5.80431 41.8871 6.38098C41.6951 6.95765 41.4767 7.57763 41.2321 8.24097L39.975 11.7H44.6121Z" fill="#1A3559"/>
<path d="M70.4439 18.894C69.8751 18.9559 69.2997 18.8925 68.7581 18.7082C68.2165 18.5238 67.7218 18.223 67.309 17.827C66.6723 17.0038 66.3529 15.9791 66.4089 14.94V8.58698H64.4819V5.90399H66.4139V3.09698L69.8489 2.23596V5.90399H73.606V8.58698H69.8489V14.394C69.8061 14.8658 69.9254 15.338 70.187 15.733C70.3191 15.8737 70.4814 15.9829 70.6617 16.0521C70.8419 16.1214 71.0355 16.149 71.2279 16.133C71.5653 16.1408 71.901 16.0837 72.2169 15.965C72.4329 15.8816 72.6418 15.7813 72.8419 15.665L73.6339 18.185C73.2494 18.3756 72.8476 18.5289 72.434 18.643C71.7863 18.8226 71.1159 18.9071 70.4439 18.894Z" fill="#1A3559"/>
<path d="M80.718 18.907C79.7352 18.9327 78.7587 18.7418 77.8579 18.3479C77.1032 18.0081 76.4327 17.5063 75.8939 16.878C75.3781 16.2647 74.9932 15.5525 74.763 14.785C74.5195 13.9973 74.3965 13.1774 74.398 12.3529C74.3995 11.5278 74.527 10.7077 74.776 9.92094C75.0163 9.13499 75.4046 8.4022 75.9199 7.76194C76.4553 7.11059 77.1253 6.58284 77.8839 6.21494C78.7687 5.79626 79.7394 5.59079 80.718 5.61497C81.7039 5.59063 82.6836 5.77673 83.5919 6.16093C84.3549 6.49299 85.0345 6.99034 85.5819 7.61698C86.1049 8.22991 86.4988 8.94214 86.7399 9.71098C86.992 10.5059 87.1192 11.3351 87.117 12.169C87.1138 12.9854 86.9867 13.7966 86.7399 14.5749C86.4949 15.3683 86.0971 16.1062 85.5689 16.7469C85.021 17.4035 84.3391 17.9354 83.5689 18.307C82.678 18.7253 81.702 18.9307 80.718 18.907ZM80.7709 16.3579C81.2062 16.3702 81.6368 16.2667 82.0189 16.058C82.3677 15.8569 82.6553 15.5648 82.851 15.2129C83.0724 14.8119 83.2261 14.3771 83.3059 13.9259C83.4049 13.3897 83.4527 12.8453 83.4489 12.3C83.4522 11.7455 83.4 11.192 83.2929 10.6479C83.2059 10.1827 83.0434 9.7348 82.812 9.32194C82.6072 8.96148 82.3113 8.66115 81.9539 8.45097C81.5693 8.23558 81.1337 8.12779 80.6929 8.13895C80.253 8.1238 79.817 8.22742 79.4309 8.43894C79.088 8.64319 78.8054 8.93481 78.612 9.28397C78.391 9.68407 78.2415 10.1196 78.1699 10.571C78.0797 11.1082 78.0362 11.6522 78.0399 12.1969C78.0364 12.7508 78.0843 13.3039 78.1829 13.849C78.2618 14.3164 78.4248 14.7657 78.664 15.175C78.8711 15.5293 79.161 15.8281 79.5089 16.0459C79.8922 16.2657 80.3294 16.3738 80.7709 16.3579Z" fill="#1A3559"/>
<path d="M88.416 16.388C88.6994 16.3189 88.9865 16.2664 89.276 16.231C89.6312 16.1815 89.9894 16.1558 90.348 16.154V8.25399C89.96 8.21865 89.5983 8.19265 89.263 8.17598C88.9277 8.15932 88.6453 8.15065 88.416 8.14998V5.967C88.874 5.915 89.5973 5.86733 90.586 5.82399C91.5747 5.78066 92.6777 5.75899 93.895 5.75899L93.762 7.94197H93.731C93.8697 7.65881 94.0373 7.39073 94.231 7.14199C94.4376 6.85655 94.6845 6.60261 94.964 6.38802C95.2517 6.17098 95.5702 5.99808 95.909 5.87502C96.2689 5.74769 96.6456 5.67391 97.027 5.65602C97.3918 5.62308 97.7596 5.64222 98.119 5.71297C98.2799 5.74471 98.4383 5.78784 98.593 5.842C98.5704 6.642 98.5477 7.4453 98.525 8.25197C98.249 8.25697 97.907 8.27398 97.515 8.31398C97.1851 8.34054 96.8573 8.38932 96.534 8.45998C96.1945 8.52527 95.8645 8.63316 95.552 8.78102C95.2603 8.92742 94.9882 9.10982 94.742 9.32399C94.5207 9.50153 94.3195 9.7027 94.142 9.92397C94.0077 10.0851 93.8895 10.2589 93.789 10.443V16.16C93.946 16.16 94.129 16.169 94.339 16.186L94.967 16.237C95.1602 16.2527 95.3525 16.2788 95.543 16.315L95.936 16.394V18.576H88.422L88.416 16.388Z" fill="#1A3559"/>
<path d="M99.582 16.3849C99.8658 16.3163 100.153 16.2643 100.443 16.229C100.798 16.1787 101.156 16.1526 101.515 16.151V8.24396C101.126 8.20996 100.764 8.18395 100.429 8.16595C100.094 8.14795 99.812 8.13929 99.582 8.13995V5.97797C100.032 5.92597 100.745 5.87867 101.721 5.836C102.697 5.79333 103.816 5.77166 105.079 5.771L104.95 7.81897V16.146C105.267 16.1485 105.584 16.1746 105.897 16.224C106.157 16.2583 106.414 16.3104 106.667 16.38V18.565H99.582V16.3849Z" fill="#1A3559"/>
<path d="M111.654 18.902C111.141 18.9059 110.632 18.8262 110.145 18.666C109.695 18.5193 109.279 18.2836 108.922 17.973C108.571 17.6613 108.291 17.2772 108.102 16.847C107.895 16.3637 107.792 15.8418 107.802 15.316C107.778 14.5825 107.973 13.8584 108.362 13.236C108.744 12.6605 109.258 12.1849 109.862 11.849C110.538 11.4725 111.272 11.2115 112.034 11.077C112.879 10.9179 113.738 10.8389 114.598 10.841H115.04V9.95698C115.061 9.71331 115.03 9.46801 114.949 9.23719C114.868 9.00637 114.739 8.79531 114.571 8.61799C114.094 8.28207 113.512 8.1294 112.932 8.18799C112.29 8.18034 111.655 8.31381 111.071 8.57899C110.569 8.80249 110.093 9.08154 109.653 9.41096L108.222 7.38196C108.824 6.85164 109.51 6.42546 110.252 6.12098C111.226 5.72456 112.271 5.5342 113.322 5.56196C114.706 5.45228 116.083 5.83442 117.213 6.641C117.673 7.11259 118.025 7.67923 118.243 8.30115C118.461 8.92307 118.54 9.58517 118.475 10.241V15.655C118.475 15.864 118.483 16.065 118.501 16.255C118.848 16.29 119.168 16.316 119.464 16.333C119.76 16.35 120.001 16.359 120.192 16.359V18.584C119.776 18.6193 119.152 18.6526 118.319 18.684C117.486 18.7153 116.523 18.733 115.43 18.737C115.365 18.5146 115.322 18.2866 115.3 18.056C115.265 17.756 115.239 17.463 115.222 17.167H115.17C114.807 17.6459 114.352 18.0463 113.83 18.344C113.171 18.7299 112.417 18.9232 111.654 18.902ZM112.696 16.502C113.18 16.5191 113.66 16.407 114.087 16.177C114.448 15.9709 114.77 15.7024 115.037 15.384V12.991H114.595C113.735 12.9564 112.878 13.1118 112.085 13.446C111.78 13.5875 111.525 13.8192 111.355 14.1099C111.185 14.4006 111.108 14.7364 111.135 15.072C111.117 15.2798 111.152 15.4889 111.236 15.6798C111.32 15.8707 111.451 16.0372 111.617 16.164C111.932 16.3869 112.31 16.5042 112.696 16.499V16.502Z" fill="#1A3559"/>
<path d="M121.155 16.378C121.438 16.3094 121.726 16.2573 122.015 16.222C122.37 16.1718 122.728 16.1457 123.087 16.144V8.21901C122.699 8.18367 122.337 8.1573 122.002 8.13997C121.667 8.12297 121.384 8.11396 121.155 8.11396V5.925C121.614 5.87167 122.333 5.82368 123.312 5.78102C124.291 5.73835 125.389 5.71668 126.607 5.71602L126.501 7.61598H126.674C127.088 7.03346 127.611 6.53751 128.215 6.15602C128.915 5.73558 129.722 5.52713 130.538 5.55598C131.126 5.53995 131.711 5.64621 132.256 5.86799C132.703 6.05862 133.097 6.35396 133.405 6.72902C133.708 7.11239 133.928 7.5553 134.049 8.029C134.187 8.56534 134.254 9.11728 134.249 9.67097V16.137C134.566 16.1395 134.883 16.1655 135.196 16.215C135.456 16.2492 135.713 16.3013 135.966 16.371V18.561H130.814V10.29C130.853 9.7771 130.711 9.26679 130.414 8.847C130.245 8.67401 130.039 8.54106 129.811 8.45784C129.584 8.37462 129.341 8.34321 129.1 8.36598C128.548 8.35887 128.01 8.54255 127.577 8.886C127.177 9.18996 126.822 9.54882 126.523 9.95198V16.142C126.856 16.16 127.187 16.1903 127.514 16.233C127.76 16.2604 128.003 16.3082 128.241 16.376V18.561H121.156L121.155 16.378Z" fill="#1A3559"/>
<path d="M57.7352 18.823C56.786 18.83 55.8389 18.7348 54.9102 18.539C54.2432 18.4187 53.5974 18.2018 52.9932 17.895V14.495H55.4292C55.4292 14.53 55.4372 14.615 55.4542 14.753C55.4712 14.891 55.4892 15.045 55.5062 15.217C55.5232 15.389 55.5362 15.552 55.5452 15.707C55.5542 15.862 55.5582 15.982 55.5582 16.068C55.8862 16.154 56.2318 16.2313 56.5952 16.3C56.9712 16.3691 57.3529 16.4026 57.7352 16.4C58.3031 16.4304 58.8694 16.3151 59.3802 16.065C59.5549 15.9809 59.7022 15.8491 59.8054 15.6849C59.9085 15.5208 59.9632 15.3308 59.9632 15.137C59.9707 14.9001 59.8873 14.6694 59.7302 14.492C59.5541 14.3057 59.3426 14.1565 59.1082 14.053C58.8191 13.9223 58.5202 13.8146 58.2142 13.731C57.8775 13.637 57.5275 13.537 57.1642 13.431C56.6817 13.3054 56.2061 13.1549 55.7392 12.98C55.2727 12.8099 54.8344 12.5705 54.4391 12.27C54.0509 11.968 53.7327 11.5856 53.5062 11.149C53.2452 10.6069 53.1206 10.0092 53.1432 9.40797C53.1141 8.86688 53.221 8.32714 53.4542 7.83802C53.6874 7.3489 54.0394 6.926 54.4781 6.60798C55.585 5.9028 56.886 5.56446 58.1962 5.641C58.7115 5.64016 59.2265 5.67056 59.7382 5.732C60.2302 5.792 60.6749 5.865 61.0722 5.951C61.423 6.02403 61.7689 6.11856 62.1082 6.23402C62.3331 6.30678 62.5502 6.40192 62.7562 6.51801V9.87H60.3212C60.2744 9.64921 60.244 9.42522 60.2302 9.19996C60.2042 8.88996 60.1822 8.59 60.1652 8.3C59.8712 8.232 59.5652 8.171 59.2452 8.12C58.9241 8.06793 58.5994 8.04184 58.2742 8.042C56.9095 8.042 56.2272 8.44598 56.2272 9.25398C56.224 9.36538 56.2429 9.47631 56.2829 9.58033C56.3229 9.68436 56.3832 9.77943 56.4602 9.85999C56.642 10.0421 56.8577 10.1868 57.0952 10.286C57.3969 10.4184 57.709 10.5261 58.0282 10.608L59.1282 10.908C59.6115 11.046 60.0908 11.2006 60.5662 11.372C61.028 11.5371 61.4641 11.7671 61.8612 12.055C62.2501 12.3392 62.5728 12.7043 62.8072 13.125C63.0659 13.6265 63.1909 14.1861 63.1702 14.75C63.1816 15.3528 63.0482 15.9495 62.7812 16.49C62.5197 17.0002 62.1372 17.4386 61.6672 17.767C61.144 18.1291 60.5606 18.3952 59.9442 18.553C59.223 18.7402 58.4802 18.831 57.7352 18.823Z" fill="#1A3559"/>
<path d="M104.947 0H101.512V3.435H104.947V0Z" fill="#1A3559"/>
<path d="M21.619 9.44598L17.297 0H8.64502L4.32397 9.44501L0 18.896H8.64899L4.32697 9.44995H11.427L15.749 18.896H25.949L21.619 9.44598Z" fill="#1A3559"/>
</svg>
